<?xml version="1.0" encoding="UTF-8" standalone="no"?>
<svg
   id="visual"
   viewBox="0 0 1920 1080"
   width="1920"
   height="1080"
   version="1.1"
   sodipodi:docname="blob-scene-haikei (1).svg"
   inkscape:version="1.2 (dc2aedaf03, 2022-05-15)"
   xmlns:inkscape="http://www.inkscape.org/namespaces/inkscape"
   xmlns:sodipodi="http://sodipodi.sourceforge.net/DTD/sodipodi-0.dtd"
   xmlns="http://www.w3.org/2000/svg"
   xmlns:svg="http://www.w3.org/2000/svg">
  <sodipodi:namedview
     id="namedview376"
     pagecolor="#ffffff"
     bordercolor="#000000"
     borderopacity="0.25"
     inkscape:showpageshadow="2"
     inkscape:pageopacity="0.0"
     inkscape:pagecheckerboard="0"
     inkscape:deskcolor="#d1d1d1"
     showgrid="false"
     inkscape:zoom="0.4787037"
     inkscape:cx="960.92843"
     inkscape:cy="541.04449"
     inkscape:window-width="1366"
     inkscape:window-height="697"
     inkscape:window-x="-8"
     inkscape:window-y="-8"
     inkscape:window-maximized="1"
     inkscape:current-layer="visual" />
  <defs
     id="defs358">
    <linearGradient
       id="grad1_0"
       x1="43.8%"
       y1="0%"
       x2="100%"
       y2="100%">
      <stop
         offset="14.444444444444446%"
         stop-color="#ffffff"
         stop-opacity="1"
         id="stop353" />
      <stop
         offset="85.55555555555554%"
         stop-color="#ffffff"
         stop-opacity="1"
         id="stop355" />
    </linearGradient>
  </defs>
  <defs
     id="defs365">
    <linearGradient
       id="grad2_0"
       x1="0%"
       y1="0%"
       x2="56.3%"
       y2="100%">
      <stop
         offset="14.444444444444446%"
         stop-color="#ffffff"
         stop-opacity="1"
         id="stop360" />
      <stop
         offset="85.55555555555554%"
         stop-color="#ffffff"
         stop-opacity="1"
         id="stop362" />
    </linearGradient>
  </defs>
  <g
     transform="translate(1920, 0)"
     id="g369">
    <path
       d="M0 432C-63.3 429.3 -126.7 426.7 -161.5 389.9C-196.3 353.1 -202.5 282.1 -244 244C-285.4 205.8 -361.9 200.5 -399.1 165.3C-436.3 130.1 -434.2 65.1 -432 0L0 0Z"
       fill="#F23849"
       id="path367" />
  </g>
  <g
     transform="translate(0, 1080)"
     id="g373">
    <path
       d="M0 -432C45.5 -391.5 90.9 -350.9 135.1 -326.1C179.2 -301.3 222.1 -292.3 270.1 -270.1C318.1 -247.9 371.3 -212.5 399.1 -165.3C427 -118.1 429.5 -59.1 432 0L0 0Z"
       fill="#F23849"
       id="path371" />
  </g>
</svg>
