<svg id="visual" viewBox="0 0 1920 1080" width="1920" height="1080" xmlns="http://www.w3.org/2000/svg" xmlns:xlink="http://www.w3.org/1999/xlink" version="1.1"><rect x="0" y="0" width="1920" height="1080" fill="#ffffff"></rect><defs><linearGradient id="grad1_0" x1="43.8%" y1="0%" x2="100%" y2="100%"><stop offset="14.444444444444446%" stop-color="#ffffff" stop-opacity="1"></stop><stop offset="85.55555555555554%" stop-color="#ffffff" stop-opacity="1"></stop></linearGradient></defs><defs><linearGradient id="grad2_0" x1="0%" y1="0%" x2="56.3%" y2="100%"><stop offset="14.444444444444446%" stop-color="#ffffff" stop-opacity="1"></stop><stop offset="85.55555555555554%" stop-color="#ffffff" stop-opacity="1"></stop></linearGradient></defs><g transform="translate(1920, 0)"><path d="M0 432C-63.3 429.3 -126.7 426.7 -161.5 389.9C-196.3 353.1 -202.5 282.1 -244 244C-285.4 205.8 -361.9 200.5 -399.1 165.3C-436.3 130.1 -434.2 65.1 -432 0L0 0Z" fill="#F23849"></path></g><g transform="translate(0, 1080)"><path d="M0 -432C45.5 -391.5 90.9 -350.9 135.1 -326.1C179.2 -301.3 222.1 -292.3 270.1 -270.1C318.1 -247.9 371.3 -212.5 399.1 -165.3C427 -118.1 429.5 -59.1 432 0L0 0Z" fill="#F23849"></path></g></svg>
