<svg id="visual" viewBox="0 0 1920 1080" width="1920" height="1080" xmlns="http://www.w3.org/2000/svg" xmlns:xlink="http://www.w3.org/1999/xlink" version="1.1"><g fill="#F23849"><path d="M0 -213.3L47.9 -65.9L202.9 -65.9L77.5 25.2L125.4 172.6L0 81.5L-125.4 172.6L-77.5 25.2L-202.9 -65.9L-47.9 -65.9Z" transform="translate(163 878)"></path><path d="M0 -27.4L6.1 -8.5L26 -8.5L9.9 3.2L16.1 22.1L0 10.5L-16.1 22.1L-9.9 3.2L-26 -8.5L-6.1 -8.5Z" transform="translate(1344 33)"></path><path d="M0 -177.4L39.8 -54.8L168.8 -54.8L64.5 20.9L104.3 143.6L0 67.8L-104.3 143.6L-64.5 20.9L-168.8 -54.8L-39.8 -54.8Z" transform="translate(1307 1006)"></path><path d="M0 -33L7.4 -10.2L31.4 -10.2L12 3.9L19.4 26.7L0 12.6L-19.4 26.7L-12 3.9L-31.4 -10.2L-7.4 -10.2Z" transform="translate(401 301)"></path><path d="M0 -52.9L11.9 -16.3L50.3 -16.3L19.2 6.2L31.1 42.8L0 20.2L-31.1 42.8L-19.2 6.2L-50.3 -16.3L-11.9 -16.3Z" transform="translate(1783 476)"></path><path d="M0 -38.7L8.7 -12L36.8 -12L14.1 4.6L22.7 31.3L0 14.8L-22.7 31.3L-14.1 4.6L-36.8 -12L-8.7 -12Z" transform="translate(824 690)"></path><path d="M0 -68.9L15.5 -21.3L65.5 -21.3L25 8.1L40.5 55.7L0 26.3L-40.5 55.7L-25 8.1L-65.5 -21.3L-15.5 -21.3Z" transform="translate(1330 521)"></path><path d="M0 -90.6L20.3 -28L86.2 -28L32.9 10.7L53.3 73.3L0 34.6L-53.3 73.3L-32.9 10.7L-86.2 -28L-20.3 -28Z" transform="translate(825 41)"></path><path d="M0 -101.9L22.9 -31.5L96.9 -31.5L37 12L59.9 82.5L0 38.9L-59.9 82.5L-37 12L-96.9 -31.5L-22.9 -31.5Z" transform="translate(1865 1045)"></path><path d="M0 -48.1L10.8 -14.9L45.8 -14.9L17.5 5.7L28.3 38.9L0 18.4L-28.3 38.9L-17.5 5.7L-45.8 -14.9L-10.8 -14.9Z" transform="translate(591 1077)"></path><path d="M0 -188.8L42.4 -58.3L179.5 -58.3L68.6 22.3L111 152.7L0 72.1L-111 152.7L-68.6 22.3L-179.5 -58.3L-42.4 -58.3Z" transform="translate(39 16)"></path></g></svg>
